<?xml version="1.0" encoding="UTF-8" standalone="no"?>
<!-- Created with Inkscape (http://www.inkscape.org/) -->

<svg
   xmlns:dc="http://purl.org/dc/elements/1.1/"
   xmlns:cc="http://creativecommons.org/ns#"
   xmlns:rdf="http://www.w3.org/1999/02/22-rdf-syntax-ns#"
   xmlns:svg="http://www.w3.org/2000/svg"
   xmlns="http://www.w3.org/2000/svg"
   xmlns:sodipodi="http://sodipodi.sourceforge.net/DTD/sodipodi-0.dtd"
   xmlns:inkscape="http://www.inkscape.org/namespaces/inkscape"
   sodipodi:docname="360sj7.svg"
   inkscape:version="0.91 r13725"
   version="1.1"
   id="svg2"
   viewBox="0 0 3600.000027906739 2400.000050361702"
   height="2400"
   width="3600">
  <sodipodi:namedview
     inkscape:snap-others="false"
     inkscape:snap-object-midpoints="true"
     inkscape:snap-center="true"
     inkscape:snap-smooth-nodes="true"
     inkscape:object-nodes="true"
     inkscape:guide-bbox="true"
     showguides="true"
     inkscape:window-maximized="1"
     inkscape:window-y="-8"
     inkscape:window-x="-8"
     inkscape:window-height="705"
     inkscape:window-width="1366"
     inkscape:showpageshadow="false"
     borderlayer="true"
     units="px"
     showgrid="false"
     inkscape:current-layer="layer1"
     inkscape:document-units="px"
     inkscape:cy="1200"
     inkscape:cx="1800"
     inkscape:zoom="0.2233333333333333"
     inkscape:pageshadow="2"
     inkscape:pageopacity="1"
     borderopacity="1"
     bordercolor="#ffffff"
     pagecolor="#808080"
     id="base"
     inkscape:snap-global="true"
     fit-margin-top="0"
     fit-margin-left="0"
     fit-margin-right="0"
     fit-margin-bottom="0"
     inkscape:snap-intersection-paths="false" />
  <defs
     id="defs4">
    <clipPath
       clipPathUnits="userSpaceOnUse"
       id="clipPath112672">
      <path
         style="color:#000000;clip-rule:nonzero;display:inline;overflow:visible;visibility:visible;opacity:1;isolation:auto;mix-blend-mode:normal;color-interpolation:sRGB;color-interpolation-filters:linearRGB;solid-color:#000000;solid-opacity:1;fill:#ffffff;fill-opacity:1;fill-rule:evenodd;stroke:none;stroke-width:6;stroke-linecap:round;stroke-linejoin:round;stroke-miterlimit:4;stroke-dasharray:none;stroke-dashoffset:0;stroke-opacity:1;marker:none;color-rendering:auto;image-rendering:auto;shape-rendering:auto;text-rendering:auto;enable-background:accumulate"
         d="m 2.728484105318785e-12,-1347.637695312499 3600.000000000000454747350886464,0 -3e-12,2399.999999999999 -3600,0 z"
         id="path112674"
         inkscape:connector-curvature="0"
         sodipodi:nodetypes="ccccc" />
    </clipPath>
  </defs>
  <metadata
     id="metadata7">
    <rdf:RDF>
      <cc:Work
         rdf:about="">
        <dc:format>image/svg+xml</dc:format>
        <dc:type
           rdf:resource="http://purl.org/dc/dcmitype/StillImage" />
        <dc:title></dc:title>
        <dc:date>2015</dc:date>
        <dc:creator>
          <cc:Agent>
            <dc:title>Lazur URH</dc:title>
          </cc:Agent>
        </dc:creator>
      </cc:Work>
    </rdf:RDF>
  </metadata>
  <g
     transform="translate(0,1347.6376953125)"
     id="layer1"
     inkscape:groupmode="layer"
     inkscape:label="Layer 1">
    <g
       id="g112126">
      <path
         sodipodi:nodetypes="ccccc"
         inkscape:connector-curvature="0"
         id="rect90843"
         d="m 2.728484105318785e-12,-1347.637695312499 3600.000000000000454747350886464,0 -3e-12,2399.999999999999 -3600,0 z"
         style="color:#000000;clip-rule:nonzero;display:inline;overflow:visible;visibility:visible;opacity:1;isolation:auto;mix-blend-mode:normal;color-interpolation:sRGB;color-interpolation-filters:linearRGB;solid-color:#000000;solid-opacity:1;fill:#ffffff;fill-opacity:1;fill-rule:evenodd;stroke:none;stroke-width:6;stroke-linecap:round;stroke-linejoin:round;stroke-miterlimit:4;stroke-dasharray:none;stroke-dashoffset:0;stroke-opacity:1;marker:none;color-rendering:auto;image-rendering:auto;shape-rendering:auto;text-rendering:auto;enable-background:accumulate" />
      <path
         inkscape:connector-curvature="0"
         d="m 2.557953848736361e-12,-147.6376953125032 0,100 m 3600.000000000011368683772161602,-100 0,100 m -0.01439313313,-3e-14 -3600.00000000000045474,0 m 3510.01439313311811929,-99.999999999999971 0,100.00000000000001 m -179.999999999999,-100.00000000000001 0,100.00000000000001 m -180.000000000001,-100.00000000000001 0,100.00000000000001 m -180,-100.00000000000001 0,100.00000000000001 m -180,-100.00000000000001 0,100.00000000000001 m -179.999999999999,-100.00000000000001 0,100.00000000000001 m -180.000000000001,-100.00000000000001 0,100.00000000000001 m -180,-100.00000000000001 0,100.00000000000001 m -180,-100.00000000000001 0,100.00000000000001 m -180,-100.00000000000001 0,100.00000000000001 m -180,-100.00000000000001 0,100.00000000000001 m -180,-100.00000000000001 0,100.00000000000001 m -180,-100.00000000000001 0,100.00000000000001 m -180,-100.00000000000001 0,100.00000000000001 m -179.9999999999996,-100.00000000000001 0,100.00000000000001 m -180.0000000000003,-100.00000000000001 0,100.00000000000001 m -179.9999999999997,-100.00000000000001 0,100.00000000000001 m -180.0000000000002,-100.00000000000001 0,100.00000000000001 m -179.9999999999996,-100.00000000000001 0,100.00000000000001 m -180.00000000000022,-100.00000000000001 0,100.00000000000001 m 3410.0000000000009,-200 0,100 m -200,-100 0,100 m -200,-100 0,100 m -200,-100 0,100 m -200,-100 0,100 m -200,-100 0,100 m -200.000000000001,-100 0,100 m -199.999999999999,-100 0,100 m -200,-100 0,100 m -200,-100 0,100 m -200.000000000001,-100 0,100 m -199.999999999999,-100 0,100 m -200.000000000001,-100 0,100 m -199.9999999999998,-100 0,100 m -200.0000000000001,-100 0,100 m -200.0000000000001,-100 0,100 m -200,-100 0,100 m -200.0000000000002,-100 0,100 m 3499.9999999999972,-3e-12 -3600.000000000001364242052659392,0 m 3.922195901395752e-12,-99.999999999997 0,100 m 3600.000000000012278178473934531,-100 0,100 m -2.1e-11,-1199.9999999999959 -3599.999999999990905052982270717,0 m 3599.999999999990905052982270717,100 -3599.999999999990905052982270717,0 m 3599.999999999990905052982270717,99.999999999999 -3599.999999999990905052982270717,0 m 3599.999999999990905052982270717,99.999999999999 -3599.999999999990905052982270717,0 m 3599.999999999990905052982270717,99.9999999999997 -3599.999999999990905052982270717,0 m 3599.999999999990905052982270717,100 -3599.999999999990905052982270717,0 m 3600.000000000000909494701772928,99.9999999999992 -3600.000000000000909494701772928,0 m 3600.000000000000909494701772928,100 -3600.000000000000909494701772928,0 m 3600.000000000000909494701772928,100 -3600.000000000000909494701772928,0 m 3600.000000000000909494701772928,99.9999999999989 -3600.000000000000909494701772928,0 m 3600.000000000000909494701772928,100 -3600.000000000000909494701772928,0 m 3600.000000000000909494701772928,99.99999999999991 -3600.000000000000909494701772928,0 m 3599.985606866867783537600189447,299.99999999999641 -3600.00000000000090949,0 m 3600.00000000000090949,99.999999999999801 -3600.00000000000090949,0 m 3600.00000000000090949,99.9999999999998 -3600.00000000000090949,0 m 3600.00000000000090949,99.99999999999997 -3600.00000000000090949,0 m 3600.00000000000090949,99.99999999999982 -3600.00000000000090949,0 m 3600.00000000000090949,99.9999999999992 -3600.00000000000090949,0 m 3600.00000000000090949,99.99999999999988 -3600.00000000000090949,0 m 3600.00000000000090949,99.9999999999996 -3600.00000000000090949,0 m 3600.00000000000090949,100 -3600.00000000000090949,0 m 3600.00000000000090949,100 -3600.00000000000090949,0 m 3600.00000000000090949,100.0000000000008 -3600.00000000000090949,0 m 0.01439313313312599085236342,-2399.999999999991 0,100 m 3600.000000000000909494701772928,-100 0,100 m -3600.000000000000909494701772928,99.999999999999 0,100 m 1199.999999999999772626324556767,-100 0,100 m 1200.000000000001,-100 0,100 m 1200,-100 0,100 m -3150.0000000000122,0 0,100.0000000000011 m 900,-100.0000000000011 0,100.0000000000011 m 900.000000000001,-100.0000000000011 0,100.0000000000011 m 900,-100.0000000000011 0,100.0000000000011 m -2429.9999999999904,0 0,100 m 719.9999999999996,-100 0,100 m 720.000000000001,-100 0,100 m 720,-100 0,100 m -2580,0 0,99.9999999999997 m 599.9999999999986,-99.9999999999997 0,99.9999999999997 m 599.9999999999995,-99.9999999999997 0,99.9999999999997 m 600,-99.9999999999997 0,99.9999999999997 m 600,-99.9999999999997 0,99.9999999999997 m 600,-99.9999999999997 0,99.9999999999997 m -3074.9999999999986,0 0,99.9999999999991 m 449.9999999999991,-99.9999999999991 0,99.9999999999991 m 450.0000000000005,-99.9999999999991 0,99.9999999999991 m 450,-99.9999999999991 0,99.9999999999991 m 450,-99.9999999999991 0,99.9999999999991 m 450,-99.9999999999991 0,99.9999999999991 m 450,-99.9999999999991 0,99.9999999999991 m 450,-99.9999999999991 0,99.9999999999991 m -2974.9999999999995,-9e-13 0,100.0000000000009 m 399.999999999999,-100.0000000000009 0,100.0000000000009 m 400.0000000000005,-100.0000000000009 0,100.0000000000009 m 400,-100.0000000000009 0,100.0000000000009 m 400,-100.0000000000009 0,100.0000000000009 m 400,-100.0000000000009 0,100.0000000000009 m 400,-100.0000000000009 0,100.0000000000009 m 400,-100.0000000000009 0,100.0000000000009 m -3019.9999999999995,-9e-13 0,100.0000000000004 m 359.9999999999991,-100.0000000000004 0,100.0000000000004 m 360,-100.0000000000004 0,100.0000000000004 m 360.0000000000005,-100.0000000000004 0,100.0000000000004 m 360,-100.0000000000004 0,100.0000000000004 m 360,-100.0000000000004 0,100.0000000000004 m 360,-100.0000000000004 0,100.0000000000004 m 360,-100.0000000000004 0,100.0000000000004 m 360,-100.0000000000004 0,100.0000000000004 m 360,-100.0000000000004 0,100.0000000000004 m -3269.9999999999995,-9e-13 0,100.0000000000009 m 300,-100.0000000000009 0,100.0000000000009 m 299.999999999999,-100.0000000000009 0,100.0000000000009 m 300.0000000000005,-100.0000000000009 0,100.0000000000009 m 300,-100.0000000000009 0,100.0000000000009 m 300,-100.0000000000009 0,100.0000000000009 m 300,-100.0000000000009 0,100.0000000000009 m 300,-100.0000000000009 0,100.0000000000009 m 300,-100.0000000000009 0,100.0000000000009 m 300,-100.0000000000009 0,100.0000000000009 m 300,-100.0000000000009 0,100.0000000000009 m 300,-100.0000000000009 0,100.0000000000009 m -3209.9999999999995,-9e-13 0,100.0000000000009 m 240,-100.0000000000009 0,100.0000000000009 m 239.9999999999993,-100.0000000000009 0,100.0000000000009 m 240,-100.0000000000009 0,100.0000000000009 m 240.0000000000102,-100.0000000000009 0,100.0000000000009 m 239.99999999999,-100.0000000000009 0,100.0000000000009 m 240,-100.0000000000009 0,100.0000000000009 m 240,-100.0000000000009 0,100.0000000000009 m 240,-100.0000000000009 0,100.0000000000009 m 240,-100.0000000000009 0,100.0000000000009 m 240,-100.0000000000009 0,100.0000000000009 m 240,-100.0000000000009 0,100.0000000000009 m 240,-100.0000000000009 0,100.0000000000009 m 240,-100.0000000000009 0,100.0000000000009 m -3285.01439313313267,199.99999999999675 0,100.00000000000022 m 150.00000000000017,-100.00000000000022 0,100.00000000000022 m 150,-100.00000000000022 0,100.00000000000022 m 149.9999999999992,-100.00000000000022 0,100.00000000000022 m 150,-100.00000000000022 0,100.00000000000022 m 150,-100.00000000000022 0,100.00000000000022 m 150,-100.00000000000022 0,100.00000000000022 m 150.0000000000005,-100.00000000000022 0,100.00000000000022 m 150,-100.00000000000022 0,100.00000000000022 m 150,-100.00000000000022 0,100.00000000000022 m 150.00000000001,-100.00000000000022 0,100.00000000000022 m 149.99999999999,-100.00000000000022 0,100.00000000000022 m 150,-100.00000000000022 0,100.00000000000022 m 150,-100.00000000000022 0,100.00000000000022 m 150,-100.00000000000022 0,100.00000000000022 m 150,-100.00000000000022 0,100.00000000000022 m 150,-100.00000000000022 0,100.00000000000022 m 150,-100.00000000000022 0,100.00000000000022 m 150,-100.00000000000022 0,100.00000000000022 m 150,-100.00000000000022 0,100.00000000000022 m 150,-100.00000000000022 0,100.00000000000022 m 150,-100.00000000000022 0,100.00000000000022 m 150,-100.00000000000022 0,100.00000000000022 m 150,-100.00000000000022 0,100.00000000000022 m -3464.99999999998999,-3.3e-13 0,100.00000000000034 m 120.00000000000011,-100.00000000000034 0,100.00000000000034 m 120,-100.00000000000034 0,100.00000000000034 m 120,-100.00000000000034 0,100.00000000000034 m 119.9999999999993,-100.00000000000034 0,100.00000000000034 m 120,-100.00000000000034 0,100.00000000000034 m 120,-100.00000000000034 0,100.00000000000034 m 120,-100.00000000000034 0,100.00000000000034 m 119.9999999999998,-100.00000000000034 0,100.00000000000034 m 120,-100.00000000000034 0,100.00000000000034 m 120,-100.00000000000034 0,100.00000000000034 m 120,-100.00000000000034 0,100.00000000000034 m 120,-100.00000000000034 0,100.00000000000034 m 120,-100.00000000000034 0,100.00000000000034 m 119.99999999999,-100.00000000000034 0,100.00000000000034 m 120,-100.00000000000034 0,100.00000000000034 m 120,-100.00000000000034 0,100.00000000000034 m 120.000000000001,-100.00000000000034 0,100.00000000000034 m 120,-100.00000000000034 0,100.00000000000034 m 120,-100.00000000000034 0,100.00000000000034 m 120,-100.00000000000034 0,100.00000000000034 m 120,-100.00000000000034 0,100.00000000000034 m 120,-100.00000000000034 0,100.00000000000034 m 120,-100.00000000000034 0,100.00000000000034 m 120,-100.00000000000034 0,100.00000000000034 m 120,-100.00000000000034 0,100.00000000000034 m 120,-100.00000000000034 0,100.00000000000034 m 120,-100.00000000000034 0,100.00000000000034 m 120,-100.00000000000034 0,100.00000000000034 m 120,-100.00000000000034 0,100.00000000000034 m -3490.05000000000018,2e-13 0,100.0000000000004 m 100,-100.0000000000004 0,100.0000000000004 m 100,-100.0000000000004 0,100.0000000000004 m 100.0000000000001,-100.0000000000004 0,100.0000000000004 m 100,-100.0000000000004 0,100.0000000000004 m 100.0000000000102,-100.0000000000004 0,100.0000000000004 m 100,-100.0000000000004 0,100.0000000000004 m 100,-100.0000000000004 0,100.0000000000004 m 100,-100.0000000000004 0,100.0000000000004 m 100,-100.0000000000004 0,100.0000000000004 m 100.000000000001,-100.0000000000004 0,100.0000000000004 m 100,-100.0000000000004 0,100.0000000000004 m 100,-100.0000000000004 0,100.0000000000004 m 100,-100.0000000000004 0,100.0000000000004 m 100,-100.0000000000004 0,100.0000000000004 m 100,-100.0000000000004 0,100.0000000000004 m 100,-100.0000000000004 0,100.0000000000004 m 100,-100.0000000000004 0,100.0000000000004 m 100,-100.0000000000004 0,100.0000000000004 m 100,-100.0000000000004 0,100.0000000000004 m 99.999999999988,-100.0000000000004 0,100.0000000000004 m 100,-100.0000000000004 0,100.0000000000004 m 100,-100.0000000000004 0,100.0000000000004 m 100,-100.0000000000004 0,100.0000000000004 m 100,-100.0000000000004 0,100.0000000000004 m 100,-100.0000000000004 0,100.0000000000004 m 100,-100.0000000000004 0,100.0000000000004 m 100,-100.0000000000004 0,100.0000000000004 m 100,-100.0000000000004 0,100.0000000000004 m 100,-100.0000000000006 0,100.0000000000006 m 100,-100.0000000000004 0,100.0000000000004 m 100,-100.0000000000006 0,100.0000000000006 m 100,-100.0000000000004 0,100.0000000000002 m 100,-100.0000000000002 0,100.0000000000002 m 100,-100.0000000000002 0,100.0000000000002 m 100,-100.0000000000004 0,100.0000000000004 m -3504.94999999999981,-8e-13 0,100.0000000000006 m 89.99999999999997,-100.0000000000006 0,100.0000000000006 m 90,-100.0000000000006 0,100.0000000000006 m 89.9999999999999,-100.0000000000006 0,100.0000000000006 m 90,-100.0000000000006 0,100.0000000000006 m 90,-100.0000000000006 0,100.0000000000006 m 90.0000000000108,-100.0000000000006 0,100.0000000000006 m 90,-100.0000000000006 0,100.0000000000006 m 90,-100.0000000000006 0,100.0000000000006 m 90,-100.0000000000006 0,100.0000000000006 m 90,-100.0000000000006 0,100.0000000000006 m 89.9999999999991,-100.0000000000006 0,100.0000000000006 m 90,-100.0000000000006 0,100.0000000000006 m 90,-100.0000000000006 0,100.0000000000006 m 90,-100.0000000000006 0,100.0000000000006 m 90,-100.0000000000006 0,100.0000000000006 m 90,-100.0000000000006 0,100.0000000000006 m 90,-100.0000000000006 0,100.0000000000006 m 90,-100.0000000000006 0,100.0000000000006 m 90,-100.0000000000006 0,100.0000000000006 m 90,-100.0000000000006 0,100.0000000000006 m 90,-100.0000000000006 0,100.0000000000006 m 90,-100.0000000000006 0,100.0000000000006 m 90.000000000002,-100.0000000000006 0,100.0000000000006 m 90,-100.0000000000006 0,100.0000000000006 m 90,-100.0000000000006 0,100.0000000000006 m 90,-100.0000000000006 0,100.0000000000006 m 90,-100.0000000000006 0,100.0000000000006 m 90,-100.0000000000006 0,100.0000000000006 m 90,-100.0000000000006 0,100.0000000000006 m 90,-100.0000000000006 0,100.0000000000006 m 90,-100.0000000000006 0,100.0000000000006 m 90,-100.0000000000006 0,100.0000000000006 m 90,-100.0000000000006 0,100.0000000000006 m 90,-100.0000000000006 0,100.0000000000006 m 90,-100.0000000000006 0,100.0000000000006 m 90,-100.0000000000006 0,100.0000000000006 m 90,-100.0000000000006 0,100.0000000000006 m 90,-100.0000000000006 0,100.0000000000006 m 90,-100.0000000000006 0,100.0000000000006 m -3475.00000000001136,-6e-13 0,100.0000000000006 m 80.00000000000002,-100.0000000000005 0,100.0000000000005 m 80,-100.0000000000005 0,100.0000000000005 m 80,-100.0000000000005 0,100.0000000000005 m 80,-100.0000000000005 0,100.0000000000005 m 80,-100.0000000000005 0,100.0000000000005 m 79.9999999999997,-100.0000000000005 0,100.0000000000005 m 80,-100.0000000000005 0,100.0000000000005 m 80,-100.0000000000005 0,100.0000000000005 m 80,-100.0000000000005 0,100.0000000000005 m 80,-100.0000000000005 0,100.0000000000005 m 80,-100.0000000000005 0,100.0000000000005 m 79.9999999999997,-100.0000000000005 0,100.0000000000005 m 80,-100.0000000000005 0,100.0000000000005 m 80,-100.0000000000005 0,100.0000000000005 m 80,-100.0000000000005 0,100.0000000000005 m 80,-100.0000000000005 0,100.0000000000005 m 80,-100.0000000000005 0,100.0000000000005 m 80,-100.0000000000005 0,100.0000000000005 m 80,-100.0000000000005 0,100.0000000000005 m 80.000000000011,-100.0000000000005 0,100.0000000000005 m 79.999999999989,-100.0000000000005 0,100.0000000000005 m 80.000000000011,-100.0000000000005 0,100.0000000000005 m 80,-100.0000000000005 0,100.0000000000005 m 79.999999999989,-100.0000000000005 0,100.0000000000005 m 80.000000000002,-100.0000000000005 0,100.0000000000005 m 80,-100.0000000000005 0,100.0000000000005 m 80,-100.0000000000005 0,100.0000000000005 m 80.00000000001,-100.0000000000005 0,100.0000000000005 m 80,-100.0000000000005 0,100.0000000000005 m 80,-100.0000000000005 0,100.0000000000005 m 80,-100.0000000000005 0,100.0000000000005 m 80,-100.0000000000004 0,100.0000000000006 m 80,-100.0000000000005 0,100.0000000000005 m 80,-100.0000000000005 0,100.0000000000005 m 80,-100.0000000000005 0,100.0000000000005 m 80,-100.0000000000005 0,100.0000000000005 m 80,-100.0000000000005 0,100.0000000000005 m 80,-100.0000000000005 0,100.0000000000005 m 80,-100.0000000000005 0,100.0000000000005 m 80,-100.0000000000005 0,100.0000000000005 m 80,-100.0000000000005 0,100.0000000000005 m 80,-100.0000000000007 0,100.0000000000006 m 80,-100.0000000000006 0,100.0000000000006 m -3490.00000000001091,-4e-13 0,99.99999999999994 m 59.99999999999999,-99.99999999999994 0,99.99999999999994 m 59.99999999999999,-99.99999999999994 0,99.99999999999994 m 60,-99.99999999999994 0,99.99999999999994 m 60,-99.99999999999994 0,99.99999999999994 m 60,-99.99999999999994 0,99.99999999999994 m 60,-99.99999999999994 0,99.99999999999994 m 60,-99.99999999999994 0,99.99999999999994 m 60.0000000000094,-99.99999999999994 0,99.99999999999994 m 59.9999999999996,-99.99999999999994 0,99.99999999999994 m 60,-99.99999999999994 0,99.99999999999994 m 60,-99.99999999999994 0,99.99999999999994 m 60,-99.99999999999994 0,99.99999999999994 m 60,-99.99999999999994 0,99.99999999999994 m 60,-99.99999999999994 0,99.99999999999994 m 60,-99.99999999999994 0,99.99999999999994 m 60,-99.99999999999994 0,99.99999999999994 m 59.9999999999999,-99.99999999999994 0,99.99999999999994 m 60,-99.99999999999994 0,99.99999999999994 m 60,-99.99999999999994 0,99.99999999999994 m 60,-99.99999999999994 0,99.99999999999994 m 60,-99.99999999999994 0,99.99999999999994 m 60,-99.99999999999994 0,99.99999999999994 m 60,-99.99999999999994 0,99.99999999999994 m 60,-99.99999999999994 0,99.99999999999994 m 60,-99.99999999999994 0,99.99999999999994 m 60,-99.99999999999994 0,99.99999999999994 m 60,-99.99999999999994 0,99.99999999999994 m 60,-99.99999999999994 0,99.99999999999994 m 60,-99.99999999999994 0,99.99999999999994 m 60,-99.99999999999994 0,99.99999999999994 m 60,-99.99999999999994 0,99.99999999999994 m 60,-99.99999999999994 0,99.99999999999994 m 59.99999999999,-99.99999999999994 0,99.99999999999994 m 60.000000000002,-99.99999999999994 0,99.99999999999994 m 60,-99.99999999999994 0,99.99999999999994 m 60,-99.99999999999994 0,99.99999999999994 m 60,-99.99999999999994 0,99.99999999999994 m 60,-99.99999999999994 0,99.99999999999994 m 60,-99.99999999999994 0,99.99999999999994 m 60,-99.99999999999994 0,99.99999999999994 m 60,-99.99999999999994 0,99.99999999999994 m 60,-99.99999999999994 0,99.99999999999994 m 60,-99.99999999999994 0,99.99999999999994 m 60,-99.99999999999994 0,99.99999999999994 m 60,-99.99999999999994 0,99.99999999999994 m 60,-99.99999999999994 0,99.99999999999994 m 60,-99.99999999999994 0,99.99999999999994 m 60,-99.99999999999994 0,99.99999999999994 m 60,-99.99999999999994 0,99.99999999999994 m 60,-99.99999999999994 0,99.99999999999994 m 60,-99.99999999999994 0,99.99999999999994 m 60,-99.99999999999994 0,99.99999999999994 m 60,-99.99999999999994 0,99.99999999999994 m 60,-99.99999999999994 0,99.99999999999994 m 60,-99.99999999999994 0,99.99999999999994 m 60,-99.99999999999994 0,99.99999999999994 m 60,-99.99999999999994 0,99.99999999999994 m 60,-99.99999999999994 0,99.99999999999994 m 60,-99.99999999999994 0,99.99999999999994 m -3545.00000000000954,-1e-13 0,100.0000000000008 m 49.99999999999999,-100.0000000000008 0,100.0000000000008 m 50.00000000000002,-100.0000000000008 0,100.0000000000008 m 50.0000000000001,-100.0000000000008 0,100.0000000000008 m 50,-100.0000000000008 0,100.0000000000008 m 50,-100.0000000000008 0,100.0000000000008 m 50,-100.0000000000008 0,100.0000000000008 m 50,-100.0000000000008 0,100.0000000000008 m 50,-100.0000000000008 0,100.0000000000008 m 50,-100.0000000000008 0,100.0000000000008 m 50.0000000000089,-100.0000000000008 0,100.0000000000008 m 50,-100.0000000000008 0,100.0000000000008 m 50,-100.0000000000008 0,100.0000000000008 m 50,-100.0000000000008 0,100.0000000000008 m 50,-100.0000000000008 0,100.0000000000008 m 50,-100.0000000000008 0,100.0000000000008 m 50,-100.0000000000008 0,100.0000000000008 m 50,-100.0000000000008 0,100.0000000000008 m 50,-100.0000000000008 0,100.0000000000008 m 50,-100.0000000000008 0,100.0000000000008 m 50.0000000000003,-100.0000000000008 0,100.0000000000008 m 50,-100.0000000000008 0,100.0000000000008 m 50,-100.0000000000008 0,100.0000000000008 m 50,-100.0000000000008 0,100.0000000000008 m 50,-100.0000000000008 0,100.0000000000008 m 50,-100.0000000000008 0,100.0000000000008 m 50,-100.0000000000008 0,100.0000000000008 m 50,-100.0000000000008 0,100.0000000000008 m 50,-100.0000000000008 0,100.0000000000008 m 50,-100.0000000000008 0,100.0000000000008 m 50,-100.0000000000008 0,100.0000000000008 m 50,-100.0000000000008 0,100.0000000000008 m 50,-100.0000000000008 0,100.0000000000008 m 50,-100.0000000000008 0,100.0000000000008 m 50,-100.0000000000008 0,100.0000000000008 m 50,-100.0000000000008 0,100.0000000000008 m 50,-100.0000000000008 0,100.0000000000008 m 50,-100.0000000000008 0,100.0000000000008 m 50,-100.0000000000008 0,100.0000000000008 m 50,-100.0000000000008 0,100.0000000000008 m 50,-100.0000000000008 0,100.0000000000008 m 50,-100.0000000000008 0,100.0000000000008 m 50,-100.0000000000008 0,100.0000000000008 m 50,-100.0000000000008 0,100.0000000000008 m 50,-100.0000000000008 0,100.0000000000008 m 50,-100.0000000000008 0,100.0000000000008 m 50,-100.0000000000008 0,100.0000000000008 m 50,-100.0000000000008 0,100.0000000000008 m 50,-100.0000000000008 0,100.0000000000008 m 50,-100.0000000000008 0,100.0000000000008 m 50,-100.0000000000008 0,100.0000000000008 m 50,-100.0000000000008 0,100.0000000000008 m 50,-100.0000000000008 0,100.0000000000008 m 50,-100.0000000000008 0,100.0000000000008 m 50,-100.0000000000008 0,100.0000000000008 m 50,-100.0000000000008 0,100.0000000000008 m 50,-100.0000000000008 0,100.0000000000008 m 50,-100.0000000000008 0,100.0000000000008 m 50,-100.0000000000008 0,100.0000000000008 m 50,-100.0000000000008 0,100.0000000000008 m 50,-100.0000000000008 0,100.0000000000008 m 50,-100.0000000000008 0,100.0000000000008 m 50,-100.0000000000008 0,100.0000000000008 m 50,-100.0000000000008 0,100.0000000000008 m 50,-100.0000000000008 0,100.0000000000008 m 50,-100.0000000000008 0,100.0000000000008 m 50,-100.0000000000008 0,100.0000000000008 m 50,-100.0000000000008 0,100.0000000000008 m 50,-100.0000000000008 0,100.0000000000008 m 50,-100.0000000000007 0,100.0000000000008 m 50,-100.0000000000009 0,100.0000000000008 m 50,-100.0000000000008 0,100.0000000000008 m -3555,8e-13 0,100.0000000000002 m 40.00000000000003,-100.0000000000002 0,100.0000000000002 m 40,-100.0000000000002 0,100.0000000000002 m 40.00000000000003,-100.0000000000002 0,100.0000000000002 m 40,-100.0000000000002 0,100.0000000000002 m 40,-100.0000000000002 0,100.0000000000002 m 40,-100.0000000000002 0,100.0000000000002 m 40,-100.0000000000002 0,100.0000000000002 m 40,-100.0000000000002 0,100.0000000000002 m 40,-100.0000000000002 0,100.0000000000002 m 40,-100.0000000000002 0,100.0000000000002 m 40,-100.0000000000002 0,100.0000000000002 m 40.000000000009,-100.0000000000002 0,100.0000000000002 m 39.9999999999995,-100.0000000000002 0,100.0000000000002 m 40,-100.0000000000002 0,100.0000000000002 m 40,-100.0000000000002 0,100.0000000000002 m 40,-100.0000000000002 0,100.0000000000002 m 40,-100.0000000000002 0,100.0000000000002 m 40,-100.0000000000002 0,100.0000000000002 m 40,-100.0000000000002 0,100.0000000000002 m 40,-100.0000000000002 0,100.0000000000002 m 40,-100.0000000000002 0,100.0000000000002 m 40,-100.0000000000002 0,100.0000000000002 m 40,-100.0000000000002 0,100.0000000000002 m 40,-100.0000000000002 0,100.0000000000002 m 40.0000000000003,-100.0000000000002 0,100.0000000000002 m 40.000000000001,-100.0000000000002 0,100.0000000000002 m 40,-100.0000000000002 0,100.0000000000002 m 40,-100.0000000000002 0,100.0000000000002 m 40,-100.0000000000002 0,100.0000000000002 m 40,-100.0000000000002 0,100.0000000000002 m 40,-100.0000000000002 0,100.0000000000002 m 40,-100.0000000000002 0,100.0000000000002 m 40,-100.0000000000002 0,100.0000000000002 m 40,-100.0000000000002 0,100.0000000000002 m 40,-100.0000000000002 0,100.0000000000002 m 40,-100.0000000000002 0,100.0000000000002 m 40,-100.0000000000002 0,100.0000000000002 m 40,-100.0000000000002 0,100.0000000000002 m 40,-100.0000000000002 0,100.0000000000002 m 40,-100.0000000000002 0,100.0000000000002 m 40,-100.0000000000002 0,100.0000000000002 m 40,-100.0000000000002 0,100.0000000000002 m 40,-100.0000000000002 0,100.0000000000002 m 40,-100.0000000000002 0,100.0000000000002 m 40,-100.0000000000002 0,100.0000000000002 m 40,-100.0000000000002 0,100.0000000000002 m 40,-100.0000000000002 0,100.0000000000002 m 40,-100.0000000000002 0,100.0000000000002 m 40,-100.0000000000002 0,100.0000000000002 m 39.99999999999,-100.0000000000002 0,100.0000000000002 m 40,-100.0000000000002 0,100.0000000000002 m 40,-100.0000000000002 0,100.0000000000002 m 40,-100.0000000000002 0,100.0000000000002 m 40,-100.0000000000002 0,100.0000000000002 m 40,-100.0000000000002 0,100.0000000000002 m 40,-100.0000000000002 0,100.0000000000002 m 40,-100.0000000000002 0,100.0000000000002 m 40,-100.0000000000002 0,100.0000000000002 m 40,-100.0000000000002 0,100.0000000000002 m 40,-100.0000000000002 0,100.0000000000002 m 40,-100.0000000000002 0,100.0000000000002 m 40,-100.0000000000002 0,100.0000000000002 m 40,-100.0000000000002 0,100.0000000000002 m 40,-100.0000000000002 0,100.0000000000002 m 40,-100.0000000000002 0,100.0000000000002 m 40,-100.0000000000002 0,100.0000000000002 m 40,-100.0000000000002 0,100.0000000000002 m 40,-100.0000000000002 0,100.0000000000002 m 40,-100.0000000000002 0,100.0000000000002 m 40,-100.0000000000002 0,100.0000000000002 m 40,-100.0000000000002 0,100.0000000000002 m 40,-100.0000000000002 0,100.0000000000002 m 40,-100.0000000000002 0,100.0000000000002 m 40,-100.0000000000001 0,100.0000000000001 m 40,-100.0000000000001 0,100.0000000000001 m 40,-100.0000000000002 0,100.0000000000002 m 40,-100.0000000000002 0,100.0000000000002 m 40,-100.0000000000002 0,100.0000000000002 m 40,-100.0000000000002 0,100.0000000000002 m 40,-100.0000000000002 0,100.0000000000002 m 40,-100.0000000000002 0,100.0000000000002 m 40,-100.0000000000002 0,100.0000000000002 m 40,-100.0000000000002 0,100.0000000000002 m 40,-100.0000000000002 0,100.0000000000002 m 40,-100.0000000000002 0,100.0000000000002 m 40,-100.0000000000002 0,100.0000000000002 m 40,-100.0000000000002 0,100.0000000000002 m 40,-100.0000000000002 0,100.0000000000002 m 40,-100.0000000000002 0,100.0000000000002 m -3564.99999999999135,-2e-13 0,100.0000000000008 m 30,-100.0000000000008 0,100.0000000000008 m 29.99999999999994,-100.0000000000008 0,100.0000000000008 m 30.00000000000017,-100.0000000000008 0,100.0000000000008 m 30,-100.0000000000008 0,100.0000000000008 m 30,-100.0000000000008 0,100.0000000000008 m 30,-100.0000000000008 0,100.0000000000008 m 30,-100.0000000000008 0,100.0000000000008 m 30,-100.0000000000008 0,100.0000000000008 m 30,-100.0000000000008 0,100.0000000000008 m 30,-100.0000000000008 0,100.0000000000008 m 30,-100.0000000000008 0,100.0000000000008 m 30,-100.0000000000008 0,100.0000000000008 m 30,-100.0000000000008 0,100.0000000000008 m 30,-100.0000000000008 0,100.0000000000008 m 30,-100.0000000000008 0,100.0000000000008 m 30,-100.0000000000008 0,100.0000000000008 m 29.9999999999995,-100.0000000000008 0,100.0000000000008 m 30,-100.0000000000008 0,100.0000000000008 m 30,-100.0000000000008 0,100.0000000000008 m 30,-100.0000000000008 0,100.0000000000008 m 30,-100.0000000000008 0,100.0000000000008 m 30,-100.0000000000008 0,100.0000000000008 m 30,-100.0000000000008 0,100.0000000000008 m 30,-100.0000000000008 0,100.0000000000008 m 30,-100.0000000000008 0,100.0000000000008 m 30,-100.0000000000008 0,100.0000000000008 m 30,-100.0000000000008 0,100.0000000000008 m 30,-100.0000000000008 0,100.0000000000008 m 30,-100.0000000000008 0,100.0000000000008 m 30,-100.0000000000008 0,100.0000000000008 m 30,-100.0000000000008 0,100.0000000000008 m 30,-100.0000000000008 0,100.0000000000008 m 30.0000000000006,-100.0000000000008 0,100.0000000000008 m 30,-100.0000000000008 0,100.0000000000008 m 30,-100.0000000000008 0,100.0000000000008 m 30,-100.0000000000008 0,100.0000000000008 m 30,-100.0000000000008 0,100.0000000000008 m 30,-100.0000000000008 0,100.0000000000008 m 30,-100.0000000000008 0,100.0000000000008 m 30,-100.0000000000008 0,100.0000000000008 m 30,-100.0000000000008 0,100.0000000000008 m 30,-100.0000000000008 0,100.0000000000008 m 30,-100.0000000000008 0,100.0000000000008 m 30,-100.0000000000008 0,100.0000000000008 m 30,-100.0000000000008 0,100.0000000000008 m 30,-100.0000000000008 0,100.0000000000008 m 30,-100.0000000000008 0,100.0000000000008 m 30,-100.0000000000008 0,100.0000000000008 m 30,-100.0000000000008 0,100.0000000000008 m 30,-100.0000000000008 0,100.0000000000008 m 30,-100.0000000000008 0,100.0000000000008 m 30,-100.0000000000008 0,100.0000000000008 m 30,-100.0000000000008 0,100.0000000000008 m 30,-100.0000000000008 0,100.0000000000008 m 30,-100.0000000000008 0,100.0000000000008 m 29.99999999999,-100.0000000000008 0,100.0000000000008 m 30,-100.0000000000008 0,100.0000000000008 m 30,-100.0000000000008 0,100.0000000000008 m 30,-100.0000000000008 0,100.0000000000008 m 30,-100.0000000000008 0,100.0000000000008 m 30,-100.0000000000008 0,100.0000000000008 m 30,-100.0000000000008 0,100.0000000000008 m 30,-100.0000000000008 0,100.0000000000008 m 30,-100.0000000000008 0,100.0000000000008 m 30,-100.0000000000008 0,100.0000000000008 m 30,-100.0000000000008 0,100.0000000000008 m 30,-100.0000000000008 0,100.0000000000008 m 30.000000000001,-100.0000000000008 0,100.0000000000008 m 30,-100.0000000000008 0,100.0000000000008 m 30,-100.0000000000008 0,100.0000000000008 m 30,-100.0000000000008 0,100.0000000000008 m 30,-100.0000000000008 0,100.0000000000008 m 30,-100.0000000000008 0,100.0000000000008 m 30,-100.0000000000008 0,100.0000000000008 m 30,-100.0000000000008 0,100.0000000000008 m 30,-100.0000000000008 0,100.0000000000008 m 30,-100.0000000000008 0,100.0000000000008 m 30,-100.0000000000008 0,100.0000000000008 m 30,-100.0000000000008 0,100.0000000000008 m 30,-100.0000000000008 0,100.0000000000008 m 30,-100.0000000000008 0,100.0000000000008 m 30,-100.0000000000008 0,100.0000000000008 m 30,-100.0000000000008 0,100.0000000000008 m 30,-100.0000000000008 0,100.0000000000008 m 30,-100.0000000000008 0,100.0000000000008 m 30,-100.0000000000008 0,100.0000000000008 m 30,-100.0000000000008 0,100.0000000000008 m 30,-100.0000000000008 0,100.0000000000008 m 30,-100.0000000000008 0,100.0000000000008 m 30,-100.0000000000008 0,100.0000000000008 m 30,-100.0000000000008 0,100.0000000000008 m 30,-100.0000000000008 0,100.0000000000008 m 30,-100.0000000000008 0,100.0000000000008 m 30,-100.0000000000008 0,100.0000000000008 m 30,-100.0000000000008 0,100.0000000000008 m 30,-100.0000000000008 0,100.0000000000008 m 30,-100.0000000000008 0,100.0000000000008 m 30,-100.0000000000008 0,100.0000000000008 m 30,-100.0000000000008 0,100.0000000000008 m 30,-100.0000000000008 0,100.0000000000008 m 30,-100.0000000000008 0,100.0000000000008 m 30,-100.0000000000008 0,100.0000000000008 m 30,-100.0000000000008 0,100.0000000000008 m 30,-100.0000000000008 0,100.0000000000008 m 30,-100.0000000000008 0,100.0000000000008 m 30,-100.0000000000008 0,100.0000000000008 m 30,-100.0000000000008 0,100.0000000000008 m 30,-100.0000000000008 0,100.0000000000008 m 30,-100.0000000000008 0,100.0000000000008 m 30,-100.0000000000008 0,100.0000000000008 m 30,-100.0000000000008 0,100.0000000000008 m 30,-100.0000000000008 0,100.0000000000008 m 30,-100.0000000000009 0,100.0000000000005 m 30,-100.0000000000003 0,100.0000000000008 m 30,-100.0000000000008 0,100.0000000000008 m 30,-100.0000000000008 0,100.0000000000008 m 30,-100.0000000000008 0,100.0000000000008 m 30,-100.0000000000008 0,100.0000000000008 m 30,-100.0000000000008 0,100.0000000000008 m -3575.000000000000909,-6e-13 0,100.0000000000013 m 19.999999999999982,-100.0000000000013 0,100.0000000000013 m 20.00000000000004,-100.0000000000013 0,100.0000000000013 m 19.99999999999993,-100.0000000000013 0,100.0000000000013 m 20,-100.0000000000013 0,100.0000000000013 m 19.9999999999999,-100.0000000000013 0,100.0000000000013 m 20.0000000000001,-100.0000000000013 0,100.0000000000013 m 20,-100.0000000000013 0,100.0000000000013 m 20,-100.0000000000013 0,100.0000000000013 m 20,-100.0000000000013 0,100.0000000000013 m 20,-100.0000000000013 0,100.0000000000013 m 20,-100.0000000000013 0,100.0000000000013 m 20,-100.0000000000013 0,100.0000000000008 m 20,-100.0000000000008 0,100.0000000000013 m 20,-100.0000000000013 0,100.0000000000008 m 20,-100.0000000000008 0,100.0000000000008 m 20,-100.0000000000008 0,100.0000000000013 m 20,-100.0000000000013 0,100.0000000000013 m 20,-100.0000000000013 0,100.0000000000013 m 20,-100.0000000000013 0,100.0000000000013 m 20,-100.0000000000013 0,100.0000000000013 m 20,-100.0000000000013 0,100.0000000000013 m 20,-100.0000000000013 0,100.0000000000013 m 20,-100.0000000000013 0,100.0000000000013 m 20,-100.0000000000013 0,100.0000000000013 m 20.000000000009,-100.0000000000013 0,100.0000000000013 m 19.9999999999994,-100.0000000000013 0,100.0000000000013 m 20,-100.0000000000013 0,100.0000000000013 m 20,-100.0000000000013 0,100.0000000000013 m 20,-100.0000000000013 0,100.0000000000013 m 20,-100.0000000000013 0,100.0000000000013 m 20,-100.0000000000013 0,100.0000000000013 m 20,-100.0000000000013 0,100.0000000000013 m 20,-100.0000000000013 0,100.0000000000013 m 20,-100.0000000000013 0,100.0000000000013 m 20,-100.0000000000013 0,100.0000000000013 m 20,-100.0000000000013 0,100.0000000000013 m 20,-100.0000000000013 0,100.0000000000013 m 20,-100.0000000000013 0,100.0000000000008 m 20,-100.0000000000008 0,100.0000000000008 m 20,-100.0000000000008 0,100.0000000000008 m 20,-100.0000000000008 0,100.0000000000008 m 20,-100.0000000000008 0,100.0000000000008 m 20,-100.0000000000008 0,100.0000000000008 m 20,-100.0000000000008 0,100.0000000000008 m 20,-100.0000000000008 0,100.0000000000013 m 20,-100.0000000000013 0,100.0000000000008 m 20,-100.0000000000008 0,100.0000000000013 m 20,-100.0000000000013 0,100.0000000000013 m 20,-100.0000000000013 0,100.0000000000013 m 20.0000000000014,-100.0000000000013 0,100.0000000000013 m 20,-100.0000000000013 0,100.0000000000013 m 20,-100.0000000000013 0,100.0000000000013 m 20,-100.0000000000013 0,100.0000000000013 m 20,-100.0000000000013 0,100.0000000000013 m 20,-100.0000000000013 0,100.0000000000013 m 20,-100.0000000000013 0,100.0000000000013 m 20,-100.0000000000013 0,100.0000000000013 m 20,-100.0000000000013 0,100.0000000000013 m 20,-100.0000000000013 0,100.0000000000013 m 20,-100.0000000000013 0,100.0000000000008 m 20,-100.0000000000008 0,100.0000000000008 m 20,-100.0000000000008 0,100.0000000000008 m 20,-100.0000000000008 0,100.0000000000008 m 20,-100.0000000000008 0,100.0000000000008 m 20,-100.0000000000008 0,100.0000000000008 m 20,-100.0000000000008 0,100.0000000000008 m 20,-100.0000000000008 0,100.0000000000008 m 20,-100.0000000000008 0,100.0000000000008 m 20,-100.0000000000008 0,100.0000000000008 m 20,-100.0000000000008 0,100.0000000000008 m 20,-100.0000000000008 0,100.0000000000008 m 20,-100.0000000000008 0,100.0000000000008 m 20,-100.0000000000008 0,100.0000000000008 m 20,-100.0000000000009 0,100.0000000000009 m 20,-100.0000000000009 0,100.0000000000009 m 20,-100.0000000000008 0,100.0000000000013 m 20,-100.0000000000013 0,100.0000000000013 m 20,-100.0000000000013 0,100.0000000000008 m 20,-100.0000000000008 0,100.0000000000008 m 20,-100.0000000000008 0,100.0000000000008 m 20,-100.0000000000008 0,100.0000000000008 m 20,-100.0000000000008 0,100.0000000000008 m 20,-100.0000000000008 0,100.0000000000013 m 20,-100.0000000000013 0,100.0000000000013 m 20,-100.0000000000013 0,100.0000000000008 m 20,-100.0000000000008 0,100.0000000000008 m 20,-100.0000000000008 0,100.0000000000008 m 20,-100.0000000000008 0,100.0000000000008 m 20,-100.0000000000008 0,100.0000000000008 m 20,-100.0000000000008 0,100.0000000000008 m 20,-100.0000000000008 0,100.0000000000013 m 20,-100.0000000000013 0,100.0000000000008 m 20,-100.0000000000008 0,100.0000000000008 m 20,-100.0000000000008 0,100.0000000000008 m 20,-100.0000000000008 0,100.0000000000008 m 20,-100.0000000000009 0,100.0000000000009 m 20,-100.0000000000008 0,100.0000000000008 m 20,-100.0000000000008 0,100.0000000000008 m 19.99999999999,-100.0000000000008 0,100.0000000000008 m 20,-100.0000000000008 0,100.0000000000013 m 20,-100.0000000000013 0,100.0000000000008 m 20,-100.0000000000008 0,100.0000000000008 m 20,-100.0000000000008 0,100.0000000000008 m 20,-100.0000000000008 0,100.0000000000008 m 20,-100.0000000000008 0,100.0000000000008 m 20,-100.0000000000008 0,100.0000000000008 m 20,-100.0000000000008 0,100.0000000000008 m 20,-100.0000000000008 0,100.0000000000008 m 20,-100.0000000000008 0,100.0000000000008 m 20,-100.0000000000008 0,100.0000000000008 m 20,-100.0000000000008 0,100.0000000000008 m 20,-100.0000000000008 0,100.0000000000008 m 20,-100.0000000000002 0,100.0000000000008 m 20,-100.0000000000014 0,100.0000000000008 m 20,-100.0000000000008 0,100.0000000000008 m 20,-100.0000000000008 0,100.0000000000008 m 20,-100.0000000000002 0,100.0000000000008 m 20,-100.0000000000008 0,100.0000000000008 m 20,-100.0000000000014 0,100.0000000000008 m 20,-100.0000000000008 0,100.0000000000008 m 20,-100.0000000000008 0,100.0000000000008 m 20,-100.0000000000008 0,100.0000000000008 m 20,-100.0000000000008 0,100.0000000000008 m 20,-100.0000000000008 0,100.0000000000008 m 20,-100.0000000000008 0,100.0000000000008 m 20,-100.0000000000008 0,100.0000000000008 m 20,-100.0000000000008 0,100.0000000000008 m 20,-100.0000000000008 0,100.0000000000008 m 20,-100.0000000000008 0,100.0000000000008 m 20,-100.0000000000008 0,100.0000000000008 m 20,-100.0000000000008 0,100.0000000000008 m 20,-100.0000000000008 0,100.0000000000008 m 20,-100.0000000000008 0,100.0000000000008 m 20,-100.0000000000008 0,100.0000000000008 m 20,-100.0000000000008 0,100.0000000000008 m 20,-100.0000000000008 0,100.0000000000008 m 20,-100.0000000000008 0,100.0000000000008 m 20,-100.0000000000008 0,100.0000000000008 m 20,-100.0000000000008 0,100.0000000000008 m 20,-100.0000000000008 0,100.0000000000008 m 20,-100.0000000000008 0,100.0000000000008 m 20,-100.0000000000008 0,100.0000000000008 m 20,-100.0000000000008 0,100.0000000000008 m 20,-100.0000000000008 0,100.0000000000008 m 20,-100.0000000000008 0,100.0000000000008 m 20,-100.0000000000008 0,100.0000000000008 m 20,-100.0000000000008 0,100.0000000000008 m 20,-100.0000000000008 0,100.0000000000008 m 20,-100.0000000000008 0,100.0000000000008 m 20,-100.0000000000008 0,100.0000000000008 m 20,-100.0000000000008 0,100.0000000000008 m 20,-100.0000000000008 0,100.0000000000008 m 20,-100.0000000000008 0,100.0000000000008 m 20,-100.0000000000008 0,100.0000000000008 m 20,-100.0000000000008 0,100.0000000000008 m 20,-100.0000000000008 0,100.0000000000008 m 20,-100.0000000000008 0,100.0000000000008 m 20,-100.0000000000008 0,100.0000000000008 m 20,-100.0000000000008 0,100.0000000000008 m 20,-100.0000000000008 0,100.0000000000008 m 20,-100.0000000000008 0,100.0000000000008 m 20,-100.0000000000008 0,100.0000000000008 m 20,-100.0000000000008 0,100.0000000000008 m 20,-100.0000000000008 0,100.0000000000008 m 20,-100.0000000000008 0,100.0000000000008 m 20,-100.0000000000008 0,100.0000000000008 m 20,-100.0000000000008 0,100.0000000000008 m 20,-100.0000000000008 0,100.0000000000008 m 20,-100.0000000000008 0,100.0000000000008 m 20,-100.0000000000008 0,100.0000000000008 m 20,-100.0000000000008 0,100.0000000000008 m 20,-100.0000000000008 0,100.0000000000008 m 20,-100.0000000000008 0,100.0000000000008 m 20,-100.0000000000008 0,100.0000000000008 m 20,-100.0000000000008 0,100.0000000000008 m 20,-100.0000000000008 0,100.0000000000008 m 20,-100.0000000000008 0,100.0000000000008 m 20,-100.0000000000008 0,100.0000000000008 m 20,-100.0000000000008 0,100.0000000000008 m -3584.999999999990905,-9e-13 0,100.0000000000022 m 10,-100.0000000000023 0,100.0000000000023 m 9.99999999999998,-100.0000000000023 0,100.0000000000023 m 10.00000000000002,-100.0000000000023 0,100.0000000000023 m 10,-100.0000000000023 0,100.0000000000023 m 10,-100.0000000000023 0,100.0000000000023 m 9.99999999999997,-100.0000000000023 0,100.0000000000023 m 10,-100.0000000000022 0,100.0000000000022 m 10,-100.0000000000022 0,100.0000000000022 m 10,-100.0000000000022 0,100.0000000000022 m 10.00000000000006,-100.0000000000022 0,100.0000000000022 m 10,-100.0000000000023 0,100.0000000000023 m 10,-100.0000000000023 0,100.0000000000023 m 9.9999999999999,-100.0000000000023 0,100.0000000000023 m 10,-100.0000000000023 0,100.0000000000023 m 10,-100.0000000000023 0,100.0000000000023 m 10,-100.0000000000023 0,100.0000000000023 m 10,-100.0000000000023 0,100.0000000000023 m 10,-100.0000000000023 0,100.0000000000023 m 10,-100.0000000000023 0,100.0000000000023 m 10,-100.0000000000022 0,100.0000000000022 m 10,-100.0000000000022 0,100.0000000000022 m 10,-100.0000000000022 0,100.0000000000022 m 10,-100.0000000000022 0,100.0000000000022 m 10,-100.0000000000022 0,100.0000000000022 m 10,-100.0000000000022 0,100.0000000000022 m 9.9999999999999,-100.0000000000022 0,100.0000000000022 m 10,-100.0000000000022 0,100.0000000000022 m 10,-100.0000000000022 0,100.0000000000022 m 10,-100.0000000000022 0,100.0000000000022 m 10,-100.0000000000023 0,100.0000000000023 m 10,-100.0000000000023 0,100.0000000000023 m 10,-100.0000000000023 0,100.0000000000023 m 10,-100.0000000000022 0,100.0000000000022 m 10,-100.0000000000022 0,100.0000000000022 m 10,-100.0000000000022 0,100.0000000000022 m 10,-100.0000000000022 0,100.0000000000022 m 10,-100.0000000000022 0,100.0000000000022 m 10,-100.0000000000022 0,100.0000000000022 m 10,-100.0000000000022 0,100.0000000000022 m 10,-100.0000000000022 0,100.0000000000022 m 10,-100.0000000000022 0,100.0000000000022 m 10,-100.0000000000022 0,100.0000000000022 m 10,-100.0000000000022 0,100.0000000000022 m 10,-100.0000000000022 0,100.0000000000022 m 10,-100.0000000000022 0,100.0000000000022 m 10,-100.0000000000022 0,100.0000000000022 m 10,-100.0000000000022 0,100.0000000000022 m 10,-100.0000000000022 0,100.0000000000022 m 10,-100.0000000000022 0,100.0000000000022 m 10,-100.0000000000022 0,100.0000000000022 m 10.0000000000002,-100.0000000000022 0,100.0000000000022 m 10,-100.0000000000022 0,100.0000000000022 m 10,-100.0000000000022 0,100.0000000000022 m 10,-100.0000000000022 0,100.0000000000022 m 10,-100.0000000000022 0,100.0000000000022 m 10,-100.0000000000022 0,100.0000000000022 m 10,-100.0000000000022 0,100.0000000000022 m 10,-100.0000000000022 0,100.0000000000022 m 10,-100.0000000000022 0,100.0000000000022 m 10,-100.0000000000022 0,100.0000000000022 m 10,-100.0000000000022 0,100.0000000000022 m 10,-100.0000000000022 0,100.0000000000022 m 10,-100.0000000000022 0,100.0000000000022 m 10,-100.0000000000022 0,100.0000000000022 m 10,-100.0000000000022 0,100.0000000000022 m 10,-100.0000000000022 0,100.0000000000022 m 10,-100.0000000000022 0,100.0000000000022 m 10,-100.0000000000022 0,100.0000000000022 m 10,-100.0000000000022 0,100.0000000000022 m 10,-100.0000000000022 0,100.0000000000022 m 10,-100.0000000000022 0,100.0000000000022 m 10,-100.0000000000022 0,100.0000000000022 m 10,-100.0000000000022 0,100.0000000000022 m 10,-100.0000000000022 0,100.0000000000022 m 10,-100.0000000000022 0,100.0000000000022 m 10,-100.0000000000022 0,100.0000000000022 m 10,-100.0000000000022 0,100.0000000000022 m 10,-100.0000000000022 0,100.0000000000022 m 10,-100.0000000000022 0,100.0000000000022 m 10,-100.0000000000022 0,100.0000000000022 m 10,-100.0000000000022 0,100.0000000000022 m 10,-100.0000000000022 0,100.0000000000022 m 10,-100.0000000000022 0,100.0000000000022 m 10,-100.0000000000022 0,100.0000000000022 m 10,-100.0000000000016 0,100.0000000000016 m 10,-100.0000000000016 0,100.0000000000016 m 10,-100.0000000000016 0,100.0000000000016 m 10,-100.0000000000016 0,100.0000000000016 m 10,-100.0000000000016 0,100.0000000000016 m 10,-100.0000000000022 0,100.0000000000022 m 10,-100.0000000000022 0,100.0000000000022 m 10,-100.0000000000022 0,100.0000000000022 m 10,-100.0000000000022 0,100.0000000000022 m 10,-100.0000000000022 0,100.0000000000022 m 10,-100.0000000000022 0,100.0000000000022 m 10,-100.0000000000022 0,100.0000000000022 m 10,-100.0000000000016 0,100.0000000000016 m 10,-100.0000000000016 0,100.0000000000016 m 10,-100.0000000000016 0,100.0000000000016 m 10.0000000000011,-100.0000000000016 0,100.0000000000016 m 10,-100.0000000000016 0,100.0000000000016 m 9.999999999999,-100.0000000000016 0,100.0000000000016 m 10,-100.0000000000016 0,100.0000000000016 m 10,-100.0000000000016 0,100.0000000000016 m 10,-100.0000000000016 0,100.0000000000016 m 10,-100.0000000000016 0,100.0000000000016 m 10,-100.0000000000016 0,100.0000000000016 m 10,-100.0000000000016 0,100.0000000000016 m 10,-100.0000000000016 0,100.0000000000016 m 10,-100.0000000000016 0,100.0000000000016 m 10,-100.0000000000016 0,100.0000000000016 m 10,-100.0000000000016 0,100.0000000000016 m 10,-100.0000000000016 0,100.0000000000016 m 10,-100.0000000000016 0,100.0000000000016 m 10,-100.0000000000016 0,100.0000000000016 m 10,-100.0000000000016 0,100.0000000000016 m 10,-100.0000000000016 0,100.0000000000016 m 10,-100.0000000000016 0,100.0000000000016 m 10,-100.0000000000016 0,100.0000000000016 m 10,-100.0000000000016 0,100.0000000000016 m 10,-100.0000000000016 0,100.0000000000016 m 10,-100.0000000000016 0,100.0000000000016 m 10,-100.0000000000016 0,100.0000000000016 m 10,-100.0000000000016 0,100.0000000000016 m 10,-100.0000000000016 0,100.0000000000016 m 10,-100.0000000000016 0,100.0000000000016 m 10,-100.0000000000016 0,100.0000000000016 m 10,-100.0000000000016 0,100.0000000000016 m 10,-100.0000000000016 0,100.0000000000016 m 10,-100.0000000000016 0,100.0000000000016 m 10,-100.0000000000016 0,100.0000000000016 m 10,-100.0000000000016 0,100.0000000000016 m 10,-100.0000000000016 0,100.0000000000016 m 10,-100.0000000000016 0,100.0000000000016 m 10,-100.0000000000016 0,100.0000000000016 m 10,-100.0000000000016 0,100.0000000000016 m 10,-100.0000000000016 0,100.0000000000016 m 10,-100.0000000000016 0,100.0000000000016 m 10,-100.0000000000016 0,100.0000000000016 m 10,-100.0000000000016 0,100.0000000000016 m 10,-100.0000000000016 0,100.0000000000016 m 10,-100.0000000000016 0,100.0000000000016 m 10,-100.0000000000016 0,100.0000000000016 m 10,-100.0000000000016 0,100.0000000000016 m 10,-100.0000000000016 0,100.0000000000016 m 10,-100.0000000000016 0,100.0000000000016 m 10,-100.0000000000016 0,100.0000000000016 m 10,-100.0000000000016 0,100.0000000000016 m 10,-100.0000000000016 0,100.0000000000016 m 10,-100.0000000000016 0,100.0000000000016 m 10,-100.0000000000016 0,100.0000000000016 m 10,-100.0000000000016 0,100.0000000000016 m 10,-100.0000000000016 0,100.0000000000016 m 10,-100.0000000000016 0,100.0000000000016 m 10,-100.0000000000016 0,100.0000000000016 m 10,-100.0000000000016 0,100.0000000000016 m 10,-100.0000000000016 0,100.0000000000016 m 10,-100.0000000000016 0,100.0000000000016 m 9.99999999999,-100.0000000000016 0,100.0000000000016 m 10.00000000001,-100.0000000000016 0,100.0000000000016 m 10,-100.0000000000016 0,100.0000000000016 m 9.99999999999,-100.0000000000016 0,100.0000000000016 m 10.00000000001,-100.0000000000016 0,100.0000000000016 m 10,-100.0000000000016 0,100.0000000000016 m 10,-100.0000000000016 0,100.0000000000016 m 10,-100.0000000000016 0,100.0000000000016 m 10,-100.0000000000016 0,100.0000000000016 m 9.99999999999,-100.0000000000016 0,100.0000000000016 m 10,-100.0000000000016 0,100.0000000000016 m 10,-100.0000000000016 0,100.0000000000016 m 10,-100.0000000000016 0,100.0000000000016 m 10,-100.0000000000016 0,100.0000000000016 m 10.00000000001,-100.0000000000016 0,100.0000000000016 m 9.99999999999,-100.0000000000016 0,100.0000000000016 m 10,-100.0000000000016 0,100.0000000000016 m 10.00000000001,-100.0000000000016 0,100.0000000000016 m 9.99999999999,-100.0000000000016 0,100.0000000000016 m 10,-100.0000000000016 0,100.0000000000016 m 10,-100.0000000000016 0,100.0000000000016 m 10,-100.0000000000016 0,100.0000000000016 m 10,-100.0000000000016 0,100.0000000000016 m 10,-100.0000000000016 0,100.0000000000016 m 10.00000000001,-100.0000000000016 0,100.0000000000016 m 9.99999999999,-100.0000000000016 0,100.0000000000016 m 10,-100.0000000000016 0,100.0000000000016 m 10,-100.0000000000016 0,100.0000000000016 m 10,-100.0000000000016 0,100.0000000000016 m 10,-100.0000000000016 0,100.0000000000016 m 10,-100.0000000000016 0,100.0000000000016 m 10,-100.0000000000016 0,100.0000000000016 m 10,-100.0000000000016 0,100.0000000000016 m 10,-100.0000000000016 0,100.0000000000016 m 10,-100.0000000000016 0,100.0000000000016 m 10,-100.0000000000014 0,100.0000000000014 m 10,-100.0000000000016 0,100.0000000000016 m 10,-100.0000000000016 0,100.0000000000016 m 10,-100.0000000000016 0,100.0000000000016 m 10,-100.0000000000016 0,100.0000000000016 m 10,-100.0000000000016 0,100.0000000000016 m 10,-100.0000000000016 0,100.0000000000016 m 10,-100.0000000000016 0,100.0000000000016 m 10,-100.0000000000016 0,100.0000000000016 m 10,-100.0000000000016 0,100.0000000000016 m 10,-100.0000000000016 0,100.0000000000016 m 10.000000000001,-100.0000000000016 0,100.0000000000016 m 10,-100.0000000000016 0,100.0000000000016 m 10,-100.0000000000016 0,100.0000000000016 m 10,-100.0000000000016 0,100.0000000000016 m 10,-100.0000000000016 0,100.0000000000016 m 10,-100.0000000000016 0,100.0000000000016 m 10,-100.0000000000016 0,100.0000000000016 m 10,-100.0000000000016 0,100.0000000000016 m 10,-100.0000000000016 0,100.0000000000016 m 10,-100.0000000000016 0,100.0000000000016 m 10,-100.0000000000016 0,100.0000000000016 m 10,-100.0000000000016 0,100.0000000000016 m 10,-100.0000000000016 0,100.0000000000016 m 10,-100.0000000000016 0,100.0000000000016 m 10,-100.0000000000016 0,100.0000000000016 m 10,-100.0000000000014 0,100.0000000000014 m 10,-100.0000000000014 0,100.0000000000014 m 10,-100.0000000000014 0,100.0000000000014 m 10,-100.0000000000016 0,100.0000000000016 m 10,-100.0000000000014 0,100.0000000000014 m 10,-100.0000000000014 0,100.0000000000014 m 10,-100.0000000000014 0,100.0000000000014 m 10,-100.0000000000016 0,100.0000000000016 m 10,-100.0000000000016 0,100.0000000000016 m 10,-100.0000000000016 0,100.0000000000016 m 10,-100.0000000000016 0,100.0000000000016 m 10,-100.0000000000014 0,100.0000000000014 m 10,-100.0000000000016 0,100.0000000000016 m 10,-100.0000000000014 0,100.0000000000014 m 10,-100.0000000000014 0,100.0000000000014 m 10,-100.0000000000014 0,100.0000000000014 m 10,-100.0000000000014 0,100.0000000000014 m 10,-100.0000000000014 0,100.0000000000014 m 10,-100.0000000000014 0,100.0000000000014 m 10,-100.0000000000016 0,100.0000000000016 m 10,-100.0000000000014 0,100.0000000000014 m 10,-100.0000000000014 0,100.0000000000014 m 10,-100.0000000000014 0,100.0000000000014 m 10,-100.0000000000014 0,100.0000000000014 m 10,-100.0000000000016 0,100.0000000000016 m 10,-100.0000000000016 0,100.0000000000016 m 10,-100.0000000000014 0,100.0000000000014 m 10,-100.0000000000014 0,100.0000000000014 m 10,-100.0000000000014 0,100.0000000000014 m 10,-100.0000000000014 0,100.0000000000014 m 10,-100.0000000000014 0,100.0000000000014 m 10,-100.0000000000014 0,100.0000000000014 m 10,-100.0000000000014 0,100.0000000000014 m 10,-100.0000000000014 0,100.0000000000014 m 10,-100.0000000000014 0,100.0000000000014 m 10,-100.0000000000016 0,100.0000000000016 m 10,-100.0000000000014 0,100.0000000000014 m 10,-100.0000000000014 0,100.0000000000014 m 10,-100.0000000000014 0,100.0000000000014 m 10,-100.0000000000014 0,100.0000000000014 m 10,-100.0000000000014 0,100.0000000000014 m 10,-100.0000000000014 0,100.0000000000014 m 10,-100.0000000000014 0,100.0000000000014 m 10,-100.0000000000014 0,100.0000000000014 m 10,-100.0000000000014 0,100.0000000000014 m 10,-100.0000000000014 0,100.0000000000014 m 10,-100.0000000000014 0,100.0000000000014 m 10,-100.0000000000014 0,100.0000000000014 m 10,-100.0000000000014 0,100.0000000000014 m 10,-100.0000000000014 0,100.0000000000014 m 10,-100.0000000000014 0,100.0000000000014 m 10,-100.0000000000014 0,100.0000000000014 m 10,-100.0000000000014 0,100.0000000000014 m 10,-100.0000000000014 0,100.0000000000014 m 10,-100.0000000000014 0,100.0000000000014 m 10,-100.0000000000014 0,100.0000000000014 m 10,-100.0000000000014 0,100.0000000000014 m 10,-100.0000000000014 0,100.0000000000014 m 10,-100.0000000000014 0,100.0000000000014 m 10,-100.0000000000014 0,100.0000000000014 m 10,-100.0000000000014 0,100.0000000000014 m 10,-100.0000000000014 0,100.0000000000014 m 10,-100.0000000000014 0,100.0000000000014 m 10,-100.0000000000014 0,100.0000000000014 m 10,-100.0000000000014 0,100.0000000000014 m 10,-100.0000000000014 0,100.0000000000014 m 10,-100.0000000000014 0,100.0000000000014 m 10,-100.0000000000014 0,100.0000000000014 m 10,-100.0000000000014 0,100.0000000000014 m 10,-100.0000000000014 0,100.0000000000014 m 10,-100.0000000000014 0,100.0000000000014 m 10,-100.0000000000014 0,100.0000000000014 m 10,-100.0000000000014 0,100.0000000000014 m 10,-100.0000000000014 0,100.0000000000014 m 10,-100.0000000000014 0,100.0000000000014 m 10,-100.0000000000014 0,100.0000000000014 m 10,-100.0000000000014 0,100.0000000000014 m 10,-100.0000000000014 0,100.0000000000014 m 10,-100.0000000000014 0,100.0000000000014 m 10,-100.0000000000014 0,100.0000000000014 m 10,-100.0000000000014 0,100.0000000000014 m 10,-100.0000000000014 0,100.0000000000014 m 10,-100.0000000000014 0,100.0000000000014 m 10,-100.0000000000014 0,100.0000000000014 m 10,-100.0000000000014 0,100.0000000000014 m 10,-100.0000000000014 0,100.0000000000014 m 10,-100.0000000000014 0,100.0000000000014 m 10,-100.0000000000014 0,100.0000000000014 m 10,-100.0000000000014 0,100.0000000000014 m 10,-100.0000000000014 0,100.0000000000014 m 10,-100.0000000000014 0,100.0000000000014 m 10,-100.0000000000014 0,100.0000000000014 m 10,-100.0000000000014 0,100.0000000000014 m 10,-100.0000000000014 0,100.0000000000014 m 10,-100.0000000000014 0,100.0000000000014 m 10,-100.0000000000014 0,100.0000000000014 m 10,-100.0000000000008 0,100.0000000000008 m 10,-100.0000000000014 0,100.0000000000014 m 10,-100.0000000000014 0,100.0000000000014 m 10,-100.0000000000014 0,100.0000000000014 m 10,-100.0000000000014 0,100.0000000000014 m 10,-100.0000000000014 0,100.0000000000014 m 10,-100.0000000000014 0,100.0000000000014 m 10,-100.0000000000014 0,100.0000000000014 m 10,-100.0000000000014 0,100.0000000000014 m 10,-100.0000000000014 0,100.0000000000014 m 10,-100.0000000000008 0,100.0000000000008 m 10,-100.0000000000008 0,100.0000000000008 m 10,-100.0000000000014 0,100.0000000000014 m 10,-100.0000000000008 0,100.0000000000008 m 10,-100.0000000000008 0,100.0000000000008 m 10,-100.0000000000014 0,100.0000000000014 m 10,-100.0000000000008 0,100.0000000000008 m 10,-100.0000000000014 0,100.0000000000014 m 10,-100.0000000000014 0,100.0000000000014 m 10,-100.0000000000014 0,100.0000000000014 m 10,-100.0000000000014 0,100.0000000000014 m 10,-100.0000000000014 0,100.0000000000014 m 10,-100.0000000000014 0,100.0000000000014 m 10,-100.0000000000008 0,100.0000000000008 m 10,-100.0000000000008 0,100.0000000000008 m 10,-100.0000000000008 0,100.0000000000008 m 10,-100.0000000000008 0,100.0000000000008 m 10,-100.0000000000008 0,100.0000000000008 m 10,-100.0000000000014 0,100.0000000000014 m 10,-100.0000000000008 0,100.0000000000008 m 10,-100.0000000000008 0,100.0000000000008 m 10,-100.0000000000014 0,100.0000000000014 m 10,-100.0000000000008 0,100.0000000000008 m 10,-100.0000000000014 0,100.0000000000014 m 10,-100.0000000000008 0,100.0000000000008 m 10,-100.0000000000014 0,100.0000000000014 m 10,-100.0000000000014 0,100.0000000000014 m 10,-100.0000000000008 0,100.0000000000008 m 10,-100.0000000000008 0,100.0000000000008 m 10,-100.0000000000008 0,100.0000000000008 m 10,-100.0000000000008 0,100.0000000000008 m 10,-100.0000000000008 0,100.0000000000008 m 10,-100.0000000000008 0,100.0000000000008 m 10,-100.0000000000014 0,100.0000000000014 m -2694.9856068668673,-2299.999999999999 0,99.999999999999 m 1799.9999999999995,-99.999999999999 0,99.999999999999 m -2699.9999999999995452526491135358,-99.999999999999 0,99.999999999999 m 3600.0000000000113686837721616029,-99.999999999999 0,99.999999999999 m -3600.00000000000045474735088646,100.000000000001 0,100.0000000000011 m 3600.00000000000045474735088646,-100.0000000000011 0,100.0000000000011 m -3600.00000000000045474735088646,2e-13 0,100 m 3600.00000000001182343112304806,-100 0,100 m -3600.00000000001182343112304806,0 0,99.999999999999 m 3600.00000000001182343112304806,-99.999999999999 0,99.999999999999 m -3600.00000000001182343112304806,-5e-13 0,100 m 3600.00000000001182343112304806,-100 0,100 m -3600.000000000019099388737231492,1e-12 0,100 m 3600.000000000010913936421275138,-100 0,100 m -3600.000000000010913936421275138,-1.9e-12 0,99.9999999999988 m 3600.000000000010913936421275138,-99.9999999999988 0,99.9999999999988 m -3600.000000000010913936421275138,1.1e-12 0,100 m 3600.000000000010913936421275138,-100 0,100 m -3600.000000000010913936421275138,9e-13 0,99.99999999999991 m 3600.000000000010913936421275138,-99.99999999999991 0,99.99999999999991 m -3600.01439313314403989,199.99999999999704 0,100.00000000000002 m 3600.00000000001182343,-100.00000000000002 0,100.00000000000002 m -3600.00000000000090949,1e-14 0,100.00000000000014 m 3600.00000000000090949,-100.00000000000019 0,100.00000000000019 m -3600.00000000001182343,-2e-13 0,100 m 3600.00000000001182343,-100 0,100 m -3599.95000000000891304,7e-13 0,99.99999999999988 m 3600.00000000001227817,-99.99999999999988 0,99.99999999999988 m -3600.00000000001227817,0 0,100 m 3600.00000000001227817,-100 0,100 m -3600.05000000001155058,-2e-13 0,99.9999999999997 m 3600.00000000001045918,-99.9999999999997 0,99.9999999999997 m -3600.00000000001045918,0 0,100 m 3600.00000000001045918,-100 0,100 m -3600.00000000001045918,8e-13 0,100 m 3600.00000000001045918,-100 0,100 m -3600.00000000001045918,9e-13 0,100 m 3600.00000000001045918,-100 0,100 m -3600.00000000001045918,-2e-13 0,100 m 3600.00000000001045918,-100 0,100 m -3600.00000000001045918,-1.49e-11 0,99.99999999999977 m 3600.00000000001045918,-99.9999999999997 0,99.9999999999997"
         style="color:#000000;clip-rule:nonzero;display:inline;overflow:visible;visibility:visible;opacity:1;isolation:auto;mix-blend-mode:normal;color-interpolation:sRGB;color-interpolation-filters:linearRGB;solid-color:#000000;solid-opacity:1;fill:none;fill-opacity:1;fill-rule:evenodd;stroke:#000000;stroke-width:6;stroke-linecap:butt;stroke-linejoin:round;stroke-miterlimit:4;stroke-dasharray:none;stroke-dashoffset:0;stroke-opacity:1;marker:none;color-rendering:auto;image-rendering:auto;shape-rendering:auto;text-rendering:auto;enable-background:accumulate"
         id="path112123"
         clip-path="url(#clipPath112672)" />
    </g>
  </g>
</svg>
